<svg width="128" height="128" viewBox="0 0 128 128" fill="none" xmlns="http://www.w3.org/2000/svg">
<rect width="128" height="128" rx="8" fill="#7A4B86"/>
<g clip-path="url(#clip0_235_6)">
<path d="M15.1675 42.7125C15.4257 42.4106 15.7462 42.1683 16.107 42.0022C16.4678 41.836 16.8603 41.75 17.2575 41.75H40.7425C41.1397 41.75 41.5322 41.836 41.893 42.0022C42.2538 42.1683 42.5743 42.4106 42.8325 42.7125L50.0072 51.0835C50.6478 51.831 51 52.783 51 53.7675V54.4688C51.0002 55.8299 50.575 57.1572 49.784 58.2649C48.993 59.3727 47.8756 60.2056 46.5881 60.6473C45.3006 61.089 43.9072 61.1174 42.6028 60.7285C41.2983 60.3396 40.148 59.5529 39.3125 58.4783C38.7024 59.2641 37.9205 59.8999 37.0268 60.337C36.1331 60.7741 35.1511 61.0009 34.1562 61C33.1613 61.0011 32.1793 60.7744 31.2856 60.3373C30.3918 59.9002 29.61 59.2643 29 58.4783C28.39 59.2643 27.6082 59.9002 26.7144 60.3373C25.8207 60.7744 24.8387 61.0011 23.8438 61C22.8488 61.0011 21.8668 60.7744 20.9731 60.3373C20.0793 59.9002 19.2975 59.2643 18.6875 58.4783C17.852 59.5529 16.7017 60.3396 15.3972 60.7285C14.0928 61.1174 12.6994 61.089 11.4119 60.6473C10.1244 60.2056 9.00701 59.3727 8.216 58.2649C7.42499 57.1572 6.99985 55.8299 7 54.4688V53.7675C7.00003 52.783 7.35216 51.831 7.99275 51.0835L15.1702 42.7097L15.1675 42.7125ZM20.0625 54.4688C20.0625 55.4716 20.4609 56.4334 21.17 57.1425C21.8791 57.8516 22.8409 58.25 23.8438 58.25C24.8466 58.25 25.8084 57.8516 26.5175 57.1425C27.2266 56.4334 27.625 55.4716 27.625 54.4688C27.625 54.1041 27.7699 53.7543 28.0277 53.4965C28.2856 53.2386 28.6353 53.0938 29 53.0938C29.3647 53.0938 29.7144 53.2386 29.9723 53.4965C30.2301 53.7543 30.375 54.1041 30.375 54.4688C30.375 55.4716 30.7734 56.4334 31.4825 57.1425C32.1916 57.8516 33.1534 58.25 34.1562 58.25C35.1591 58.25 36.1209 57.8516 36.83 57.1425C37.5391 56.4334 37.9375 55.4716 37.9375 54.4688C37.9375 54.1041 38.0824 53.7543 38.3402 53.4965C38.5981 53.2386 38.9478 53.0938 39.3125 53.0938C39.6772 53.0938 40.0269 53.2386 40.2848 53.4965C40.5426 53.7543 40.6875 54.1041 40.6875 54.4688C40.6875 55.4716 41.0859 56.4334 41.795 57.1425C42.5041 57.8516 43.4659 58.25 44.4688 58.25C45.4716 58.25 46.4334 57.8516 47.1425 57.1425C47.8516 56.4334 48.25 55.4716 48.25 54.4688V53.7675C48.25 53.4398 48.133 53.1228 47.92 52.8738L40.7425 44.5H17.2575L10.08 52.8738C9.867 53.1228 9.74997 53.4398 9.75 53.7675V54.4688C9.75 55.4716 10.1484 56.4334 10.8575 57.1425C11.5666 57.8516 12.5284 58.25 13.5312 58.25C14.5341 58.25 15.4959 57.8516 16.205 57.1425C16.9141 56.4334 17.3125 55.4716 17.3125 54.4688C17.3125 54.1041 17.4574 53.7543 17.7152 53.4965C17.9731 53.2386 18.3228 53.0938 18.6875 53.0938C19.0522 53.0938 19.4019 53.2386 19.6598 53.4965C19.9176 53.7543 20.0625 54.1041 20.0625 54.4688V54.4688ZM11.125 62.375C11.4897 62.375 11.8394 62.5199 12.0973 62.7777C12.3551 63.0356 12.5 63.3853 12.5 63.75V80.25H45.5V63.75C45.5 63.3853 45.6449 63.0356 45.9027 62.7777C46.1606 62.5199 46.5103 62.375 46.875 62.375C47.2397 62.375 47.5894 62.5199 47.8473 62.7777C48.1051 63.0356 48.25 63.3853 48.25 63.75V80.25H49.625C49.9897 80.25 50.3394 80.3949 50.5973 80.6527C50.8551 80.9106 51 81.2603 51 81.625C51 81.9897 50.8551 82.3394 50.5973 82.5973C50.3394 82.8551 49.9897 83 49.625 83H8.375C8.01033 83 7.66059 82.8551 7.40273 82.5973C7.14487 82.3394 7 81.9897 7 81.625C7 81.2603 7.14487 80.9106 7.40273 80.6527C7.66059 80.3949 8.01033 80.25 8.375 80.25H9.75V63.75C9.75 63.3853 9.89487 63.0356 10.1527 62.7777C10.4106 62.5199 10.7603 62.375 11.125 62.375V62.375ZM16.625 63.75C16.9897 63.75 17.3394 63.8949 17.5973 64.1527C17.8551 64.4106 18 64.7603 18 65.125V74.75H40V65.125C40 64.7603 40.1449 64.4106 40.4027 64.1527C40.6606 63.8949 41.0103 63.75 41.375 63.75C41.7397 63.75 42.0894 63.8949 42.3473 64.1527C42.6051 64.4106 42.75 64.7603 42.75 65.125V74.75C42.75 75.4793 42.4603 76.1788 41.9445 76.6945C41.4288 77.2103 40.7293 77.5 40 77.5H18C17.2707 77.5 16.5712 77.2103 16.0555 76.6945C15.5397 76.1788 15.25 75.4793 15.25 74.75V65.125C15.25 64.7603 15.3949 64.4106 15.6527 64.1527C15.9106 63.8949 16.2603 63.75 16.625 63.75Z" fill="white"/>
</g>
<path d="M115.125 69.7691V66.375H112.5V70.3125C112.5 70.6606 112.638 70.9944 112.885 71.2404L116.438 74.7934V76.875H87.5625V74.7934L91.1154 71.2404C91.3616 70.9944 91.4999 70.6606 91.5 70.3125V65.0625C91.4963 63.2182 91.9795 61.4055 92.9006 59.8077C93.8216 58.2098 95.1481 56.8833 96.7459 55.9622C98.3438 55.041 100.156 54.5578 102.001 54.5614C103.845 54.565 105.656 55.0553 107.25 55.9826V53.0492C106.001 52.496 104.672 52.1434 103.312 52.0044V49.3125H100.688V52.0031C97.4516 52.3325 94.4528 53.85 92.2709 56.2622C90.089 58.6744 88.8791 61.8099 88.875 65.0625V69.7691L85.3221 73.3221C85.0759 73.5681 84.9376 73.9019 84.9375 74.25V78.1875C84.9375 78.5356 85.0758 78.8694 85.3219 79.1156C85.5681 79.3617 85.9019 79.5 86.25 79.5H95.4375V80.8125C95.4375 82.553 96.1289 84.2222 97.3596 85.4529C98.5903 86.6836 100.26 87.375 102 87.375C103.74 87.375 105.41 86.6836 106.64 85.4529C107.871 84.2222 108.562 82.553 108.562 80.8125V79.5H117.75C118.098 79.5 118.432 79.3617 118.678 79.1156C118.924 78.8694 119.062 78.5356 119.062 78.1875V74.25C119.062 73.9019 118.924 73.5681 118.678 73.3221L115.125 69.7691ZM105.938 80.8125C105.938 81.8568 105.523 82.8583 104.784 83.5967C104.046 84.3352 103.044 84.75 102 84.75C100.956 84.75 99.9542 84.3352 99.2158 83.5967C98.4773 82.8583 98.0625 81.8568 98.0625 80.8125V79.5H105.938V80.8125Z" fill="white"/>
<path d="M115.125 63.75C118.024 63.75 120.375 61.3995 120.375 58.5C120.375 55.6005 118.024 53.25 115.125 53.25C112.226 53.25 109.875 55.6005 109.875 58.5C109.875 61.3995 112.226 63.75 115.125 63.75Z" fill="white"/>
<path d="M80.0607 68.0607C80.6464 67.4749 80.6464 66.5251 80.0607 65.9393L70.5147 56.3934C69.9289 55.8076 68.9792 55.8076 68.3934 56.3934C67.8076 56.9792 67.8076 57.9289 68.3934 58.5147L76.8787 67L68.3934 75.4853C67.8076 76.0711 67.8076 77.0208 68.3934 77.6066C68.9792 78.1924 69.9289 78.1924 70.5147 77.6066L80.0607 68.0607ZM53 68.5H79V65.5H53V68.5Z" fill="white"/>
<defs>
<clipPath id="clip0_235_6">
<rect width="44" height="44" fill="white" transform="translate(7 39)"/>
</clipPath>
</defs>
</svg>
